PathFileType	4	(X/Y/Z)	c:/Users/goper/Files/vsCode/490R/osim_files/C05/C05_Slow_06.trc
DataRate	CameraRate	NumFrames	NumMarkers	Units                	OrigDataRate	OrigDataStartFrame	OrigNumFrames
250.00	250.00	4	36	mm	250.0	1662	2658
                Frame#	Time	LPSIS			LASIS			LTH1			LTH2			LTH3			LTH4			LLFE			LMFE			LSH1			LSH2			LSH3			LSH4			LLMAL			LMMAL			LCAL			LMTP5			LTOE			LMTP1			RPSIS			RASIS			RTH1			RTH2			RTH3			RTH4			RLFE			RMFE			RSH1			RSH2			RSH3			RSH4			RLMAL			RMMAL			RCAL			RMTP1			RTOE			RMTP5		
		X1	Y1	Z1	X2	Y2	Z2	X3	Y3	Z3	X4	Y4	Z4	X5	Y5	Z5	X6	Y6	Z6	X7	Y7	Z7	X8	Y8	Z8	X9	Y9	Z9	X10	Y10	Z10	X11	Y11	Z11	X12	Y12	Z12	X13	Y13	Z13	X14	Y14	Z14	X15	Y15	Z15	X16	Y16	Z16	X17	Y17	Z17	X18	Y18	Z18	X19	Y19	Z19	X20	Y20	Z20	X21	Y21	Z21	X22	Y22	Z22	X23	Y23	Z23	X24	Y24	Z24	X25	Y25	Z25	X26	Y26	Z26	X27	Y27	Z27	X28	Y28	Z28	X29	Y29	Z29	X30	Y30	Z30	X31	Y31	Z31	X32	Y32	Z32	X33	Y33	Z33	X34	Y34	Z34	X35	Y35	Z35	X36	Y36	Z36

1662	6.64400	-1600.81604	1034.27917	257.48871	-1792.90088	985.19598	328.95697	-1619.72339	683.54688	358.10303	-1619.56018	621.00702	347.89822	-1695.89954	676.29413	358.95633	-1685.51978	616.22864	348.67694	-1635.91028	512.50446	334.06122	-1638.99316	503.12167	216.77725	-1458.09021	419.97388	338.81641	-1434.46545	381.84045	334.63550	-1506.56079	380.20767	352.95889	-1475.79883	349.64832	345.95563	-1313.37207	179.64949	313.21613	-1346.16260	181.33067	231.62363	-1249.79980	196.10222	259.13147	-1380.92322	42.48214	324.62506	-1422.12988	58.19175	262.44830	-1410.09241	57.63770	213.77403	-1610.21301	1041.20508	149.34660	-1804.38452	1003.56519	98.70422	-1805.27185	665.63531	44.95061	-1835.03149	613.63977	61.58489	-1871.18799	699.53613	56.79885	-1893.05261	641.74445	69.40360	0.00000	0.00000	0.00000	-1900.30872	545.88055	88.99465	-1850.49890	375.09433	61.87227	-1861.83850	328.74368	68.35443	-1910.23645	382.40311	74.07081	-1912.90784	335.98584	78.94887	-1905.23108	100.13088	117.37684	-1927.50464	116.49438	202.38971	-1846.65527	71.81795	169.00354	-2063.09985	57.75088	192.32686	-2080.00757	85.27965	143.56195	-2034.09509	45.16968	83.74397
1663	6.64800	-1605.66394	1034.55774	257.40262	-1797.75574	985.43964	328.05743	-1626.37708	682.73907	357.66153	-1626.62048	620.18372	347.64740	-1702.56079	676.08801	358.74207	-1692.68518	615.87091	348.64410	-1643.89807	511.77924	334.18301	-1647.49524	501.96707	216.84793	-1465.63147	421.17862	339.04108	-1441.57373	382.99194	335.13239	-1513.70203	380.78445	353.26440	-1482.49304	350.33771	346.48599	-1317.83887	183.00377	313.93207	-1350.70227	183.89967	232.22572	-1254.65894	201.01146	259.98428	-1382.02197	43.89217	324.91138	-1423.37292	58.75412	262.61987	-1411.54785	58.60743	213.89122	-1614.81653	1041.76697	149.18936	-1809.14221	1004.42566	97.90277	-1808.85547	666.06348	44.52333	-1838.59558	614.07471	61.16822	-1874.90942	699.84290	56.11240	-1896.79797	642.00726	68.76136	0.00000	0.00000	0.00000	-1903.83984	545.98749	88.70399	-1853.55823	375.42313	61.68533	-1864.52844	328.98990	68.31916	-1913.23743	382.30084	74.16302	-1915.54114	335.90210	79.09705	-1905.66077	100.13776	117.43945	-1927.92529	116.32797	202.51288	-1846.84412	71.90575	168.99103	-2063.33618	56.81179	192.63036	-2080.58765	84.45704	143.99487	-2034.42896	44.81013	83.86946
1664	6.65200	-1610.38855	1034.82983	257.24567	-1802.38928	985.73041	327.20441	-1633.02795	681.88000	357.13538	-1633.77832	619.31873	347.39566	-1709.26306	675.86505	358.42651	-1699.83081	615.52246	348.53638	-1651.90942	511.10959	334.32559	-1656.27661	500.91019	216.93018	-1473.30261	422.30295	339.22171	-1448.85559	384.76074	335.19574	-1520.88611	381.38513	353.53558	-1489.34753	351.56119	346.62381	-1322.68481	186.38712	314.59647	-1355.11499	186.65744	232.76796	-1259.81067	206.13031	260.81085	-1383.41797	45.41845	325.18936	-1424.99292	59.50488	262.79626	-1412.88367	59.50897	214.14287	-1619.42566	1042.27771	149.04355	-1813.82275	1005.02777	97.07303	-1811.32776	667.06122	45.03064	-1842.52637	614.14545	61.31570	-1878.46521	700.14642	55.28258	-1900.13416	642.02039	68.08100	0.00000	0.00000	0.00000	-1907.23474	545.92798	88.43843	-1856.38989	375.75266	61.73655	-1867.05750	329.27069	68.35954	-1916.21033	382.23880	74.24916	-1918.11572	335.77100	79.25954	-1906.15625	100.17137	117.55245	-1928.32996	116.13148	202.68384	-1846.98474	72.00031	168.99556	-2063.55811	55.90469	192.88818	-2081.17236	83.55269	144.43369	-2034.70557	44.57203	84.00377
1665	6.65600	-1615.10559	1035.09534	257.09567	-1807.04065	985.98737	326.37866	-1639.82361	681.49353	356.55264	-1640.99683	618.45416	347.15759	-1715.60278	675.63885	358.61542	-1707.10559	615.16864	348.48492	-1660.04578	510.46454	334.43045	-1665.07263	499.82288	217.03793	-1481.22424	423.49185	339.47189	-1456.25415	386.12222	335.40561	-1528.22095	381.96283	353.83432	-1496.43335	352.54785	346.91138	-1327.65063	189.92090	315.24719	-1359.89673	189.48012	233.33693	-1265.11938	211.49341	261.73792	-1384.97034	47.22401	325.48865	-1426.58740	60.30137	263.10107	-1414.41760	60.65023	214.34109	-1624.05383	1042.81348	148.83841	-1818.47717	1005.77759	96.24316	-1814.50781	667.16687	44.69181	-1845.57690	614.17242	61.03088	-1881.89417	699.85242	54.34784	-1903.40613	641.82269	67.26335	0.00000	0.00000	0.00000	-1910.65088	545.81281	88.24146	-1859.16187	376.05524	61.91959	-1869.42224	329.47049	68.53602	-1918.97937	382.07846	74.36845	-1920.57141	335.62747	79.45047	-1906.66455	100.18391	117.73997	-1928.73022	115.95387	202.92876	-1847.12219	72.07741	169.01952	-2063.80347	54.97091	193.21552	-2081.68506	82.71704	144.90976	-2034.91272	44.48549	84.12229
